<svg width="313" height="110" viewBox="0 0 313 110" fill="none" xmlns="http://www.w3.org/2000/svg">
    <rect width="110" height="110" rx="55" fill="#2A2928" />
    <path
        d="M28.4082 56.0853C24.594 45.7494 33.2544 69.2166 36.5404 78.1207C36.8878 79.0622 38.2472 78.9534 38.4538 77.9714L48.4579 30.4254C48.5553 29.9627 48.8371 29.6313 49.31 29.6315C95.4882 29.6576 460.935 32.1981 221.182 30.5678"
        stroke="#EB5E28" stroke-width="5" />
    <path
        d="M63.2404 40.7223H69.6324L80.7461 67.8586H81.1552L92.2688 40.7223H98.6608V75.6313H93.6495V50.37H93.3256L83.0302 75.5802H78.8711L68.5756 50.3529H68.2517V75.6313H63.2404V40.7223ZM113.529 76.2109C111.87 76.2109 110.37 75.9041 109.029 75.2904C107.688 74.6654 106.625 73.762 105.841 72.5802C105.069 71.3984 104.682 69.9495 104.682 68.2336C104.682 66.7563 104.966 65.5404 105.534 64.5859C106.103 63.6313 106.87 62.8757 107.836 62.3188C108.801 61.762 109.881 61.3416 111.074 61.0575C112.267 60.7734 113.483 60.5575 114.722 60.4098C116.29 60.2279 117.563 60.0802 118.54 59.9666C119.517 59.8416 120.228 59.6427 120.671 59.37C121.114 59.0973 121.336 58.6541 121.336 58.0404V57.9211C121.336 56.4325 120.915 55.2791 120.074 54.4609C119.245 53.6427 118.006 53.2336 116.358 53.2336C114.642 53.2336 113.29 53.6143 112.301 54.3757C111.324 55.1257 110.648 55.9609 110.273 56.8813L105.483 55.7904C106.051 54.1995 106.881 52.9154 107.972 51.9382C109.074 50.9495 110.341 50.2336 111.773 49.7904C113.205 49.3359 114.711 49.1086 116.29 49.1086C117.336 49.1086 118.444 49.2336 119.614 49.4836C120.796 49.7223 121.898 50.1654 122.921 50.8132C123.955 51.4609 124.801 52.387 125.461 53.5916C126.12 54.7848 126.449 56.3359 126.449 58.245V75.6313H121.472V72.0518H121.267C120.938 72.7109 120.444 73.3586 119.784 73.995C119.125 74.6313 118.279 75.1598 117.245 75.5802C116.211 76.0007 114.972 76.2109 113.529 76.2109ZM114.637 72.12C116.046 72.12 117.25 71.8416 118.25 71.2848C119.262 70.7279 120.029 70.0007 120.551 69.1029C121.086 68.1938 121.353 67.2223 121.353 66.1882V62.8132C121.171 62.995 120.819 63.1654 120.296 63.3245C119.784 63.4723 119.199 63.6029 118.54 63.7166C117.881 63.8188 117.239 63.9154 116.614 64.0063C115.989 64.0859 115.466 64.1541 115.046 64.2109C114.057 64.3359 113.154 64.5461 112.336 64.8416C111.529 65.137 110.881 65.5632 110.392 66.12C109.915 66.6654 109.676 67.3927 109.676 68.3018C109.676 69.5632 110.142 70.5177 111.074 71.1654C112.006 71.8018 113.194 72.12 114.637 72.12ZM145.459 49.4495V53.5404H131.158V49.4495H145.459ZM134.993 43.1768H140.09V67.9438C140.09 68.9325 140.238 69.6768 140.533 70.1768C140.828 70.6654 141.209 71.0007 141.675 71.1825C142.152 71.3529 142.669 71.4382 143.226 71.4382C143.635 71.4382 143.993 71.4098 144.3 71.3529C144.607 71.2961 144.845 71.2507 145.016 71.2166L145.936 75.4268C145.641 75.5404 145.22 75.6541 144.675 75.7677C144.13 75.8927 143.448 75.9609 142.63 75.9723C141.289 75.995 140.039 75.7563 138.88 75.2563C137.72 74.7563 136.783 73.9836 136.067 72.9382C135.351 71.8927 134.993 70.5802 134.993 69.0007V43.1768ZM156.756 60.0859V75.6313H151.659V40.7223H156.688V53.7109H157.012C157.625 52.3018 158.563 51.1825 159.824 50.3529C161.086 49.5234 162.733 49.1086 164.767 49.1086C166.563 49.1086 168.131 49.4779 169.472 50.2166C170.824 50.9552 171.87 52.0575 172.608 53.5234C173.358 54.9779 173.733 56.7961 173.733 58.9779V75.6313H168.637V59.5916C168.637 57.6711 168.142 56.1825 167.154 55.1257C166.165 54.0575 164.79 53.5234 163.029 53.5234C161.824 53.5234 160.745 53.7791 159.79 54.2904C158.847 54.8018 158.103 55.5518 157.557 56.5404C157.023 57.5177 156.756 58.6995 156.756 60.0859Z"
        fill="#FFFCF2" />
    <path
        d="M186.704 40.7223H193.096L204.209 67.8586H204.618L215.732 40.7223H222.124V75.6313H217.113V50.37H216.789L206.493 75.5802H202.334L192.039 50.3529H191.715V75.6313H186.704V40.7223ZM236.992 76.2109C235.333 76.2109 233.833 75.9041 232.492 75.2904C231.151 74.6654 230.088 73.762 229.304 72.5802C228.532 71.3984 228.145 69.9495 228.145 68.2336C228.145 66.7563 228.429 65.5404 228.998 64.5859C229.566 63.6313 230.333 62.8757 231.299 62.3188C232.265 61.762 233.344 61.3416 234.537 61.0575C235.73 60.7734 236.946 60.5575 238.185 60.4098C239.753 60.2279 241.026 60.0802 242.003 59.9666C242.98 59.8416 243.691 59.6427 244.134 59.37C244.577 59.0973 244.799 58.6541 244.799 58.0404V57.9211C244.799 56.4325 244.378 55.2791 243.537 54.4609C242.708 53.6427 241.469 53.2336 239.821 53.2336C238.105 53.2336 236.753 53.6143 235.765 54.3757C234.787 55.1257 234.111 55.9609 233.736 56.8813L228.946 55.7904C229.515 54.1995 230.344 52.9154 231.435 51.9382C232.537 50.9495 233.804 50.2336 235.236 49.7904C236.668 49.3359 238.174 49.1086 239.753 49.1086C240.799 49.1086 241.907 49.2336 243.077 49.4836C244.259 49.7223 245.361 50.1654 246.384 50.8132C247.418 51.4609 248.265 52.387 248.924 53.5916C249.583 54.7848 249.912 56.3359 249.912 58.245V75.6313H244.935V72.0518H244.73C244.401 72.7109 243.907 73.3586 243.248 73.995C242.588 74.6313 241.742 75.1598 240.708 75.5802C239.674 76.0007 238.435 76.2109 236.992 76.2109ZM238.1 72.12C239.509 72.12 240.713 71.8416 241.713 71.2848C242.725 70.7279 243.492 70.0007 244.015 69.1029C244.549 68.1938 244.816 67.2223 244.816 66.1882V62.8132C244.634 62.995 244.282 63.1654 243.759 63.3245C243.248 63.4723 242.662 63.6029 242.003 63.7166C241.344 63.8188 240.702 63.9154 240.077 64.0063C239.452 64.0859 238.929 64.1541 238.509 64.2109C237.52 64.3359 236.617 64.5461 235.799 64.8416C234.992 65.137 234.344 65.5632 233.855 66.12C233.378 66.6654 233.14 67.3927 233.14 68.3018C233.14 69.5632 233.605 70.5177 234.537 71.1654C235.469 71.8018 236.657 72.12 238.1 72.12ZM268.922 49.4495V53.5404H254.621V49.4495H268.922ZM258.456 43.1768H263.553V67.9438C263.553 68.9325 263.701 69.6768 263.996 70.1768C264.292 70.6654 264.672 71.0007 265.138 71.1825C265.615 71.3529 266.132 71.4382 266.689 71.4382C267.098 71.4382 267.456 71.4098 267.763 71.3529C268.07 71.2961 268.309 71.2507 268.479 71.2166L269.4 75.4268C269.104 75.5404 268.684 75.6541 268.138 75.7677C267.593 75.8927 266.911 75.9609 266.093 75.9723C264.752 75.995 263.502 75.7563 262.343 75.2563C261.184 74.7563 260.246 73.9836 259.53 72.9382C258.814 71.8927 258.456 70.5802 258.456 69.0007V43.1768ZM285.563 76.1598C282.983 76.1598 280.762 75.6086 278.898 74.5063C277.046 73.3927 275.614 71.8302 274.603 69.8188C273.603 67.7961 273.103 65.4268 273.103 62.7109C273.103 60.0291 273.603 57.6654 274.603 55.62C275.614 53.5745 277.023 51.9779 278.83 50.8302C280.648 49.6825 282.773 49.1086 285.205 49.1086C286.682 49.1086 288.114 49.3529 289.5 49.8416C290.887 50.3302 292.131 51.0973 293.233 52.1427C294.336 53.1882 295.205 54.5461 295.841 56.2166C296.478 57.8757 296.796 59.8927 296.796 62.2677V64.0745H275.983V60.2563H291.802C291.802 58.9154 291.529 57.7279 290.983 56.6938C290.438 55.6484 289.671 54.8245 288.682 54.2223C287.705 53.62 286.557 53.3188 285.239 53.3188C283.807 53.3188 282.557 53.6711 281.489 54.3757C280.432 55.0688 279.614 55.9779 279.034 57.1029C278.466 58.2166 278.182 59.4268 278.182 60.7336V63.7166C278.182 65.4666 278.489 66.9552 279.103 68.1825C279.728 69.4098 280.597 70.3473 281.711 70.995C282.824 71.6313 284.125 71.9495 285.614 71.9495C286.58 71.9495 287.461 71.8132 288.256 71.5404C289.052 71.2563 289.739 70.8359 290.319 70.2791C290.898 69.7223 291.341 69.0348 291.648 68.2166L296.472 69.0859C296.086 70.5063 295.392 71.7507 294.392 72.8188C293.404 73.8757 292.159 74.6995 290.659 75.2904C289.171 75.87 287.472 76.1598 285.563 76.1598Z"
        fill="#EB5E28" />
</svg>
